<?xml version="1.0"?>
<svg xmlns="http://www.w3.org/2000/svg" viewBox="0 0 64 64" width="50" height="50"><g id="flat"><path d="M3,9H61v1.734A6,6,0,0,1,56.971,16.4L38,23,26,30h0A12.023,12.023,0,0,0,8.524,28.614L7,30H7A18.256,18.256,0,0,1,3,18.6Z" style="fill:#666"/><path d="M44.742,9C38.323,16.709,29.423,22.322,20.95,26.3A11.955,11.955,0,0,1,26,30l12-7,18.971-6.6A6,6,0,0,0,61,10.734V9Z" style="fill:#666"/><path d="M61,9H34.325A38.967,38.967,0,0,0,22,11h0A38.967,38.967,0,0,1,9.675,13H3V9A6,6,0,0,1,9,3H55A6,6,0,0,1,61,9Z" style="fill:#d6d9db"/><rect x="52" y="3" width="2" height="3" style="fill:#b6b8ba"/><rect x="46" y="3" width="2" height="3" style="fill:#b6b8ba"/><rect x="40" y="3" width="2" height="3" style="fill:#b6b8ba"/><rect x="34" y="3" width="2" height="3" style="fill:#b6b8ba"/><rect x="28" y="3" width="2" height="3" style="fill:#b6b8ba"/><rect x="22" y="3" width="2" height="3" style="fill:#b6b8ba"/><rect x="16" y="3" width="2" height="3" style="fill:#b6b8ba"/><rect x="10" y="3" width="2" height="3" style="fill:#b6b8ba"/><path d="M17.371,19.929l-.742-1.858,10-4a1,1,0,0,1,1.078.222l2.55,2.55,10.4-3.783.684,1.88-11,4a1,1,0,0,1-1.049-.233l-2.534-2.534Z" style="fill:#d6d9db"/><rect x="30" y="23.298" width="2" height="6.403" transform="matrix(0.781, -0.625, 0.625, 0.781, -9.761, 25.173)" style="fill:#d6d9db"/><rect x="34.5" y="21.111" width="2" height="6.403" transform="matrix(0.781, -0.625, 0.625, 0.781, -7.409, 27.504)" style="fill:#d6d9db"/><rect x="39.187" y="18.861" width="2" height="6.403" transform="matrix(0.781, -0.625, 0.625, 0.781, -4.976, 29.94)" style="fill:#d6d9db"/><rect x="44.19" y="16.86" width="2" height="6.403" transform="matrix(0.781, -0.625, 0.625, 0.781, -2.63, 32.626)" style="fill:#d6d9db"/><path d="M61,55H3V53.266A6,6,0,0,1,7.029,47.6L26,41l12-7h0a12.023,12.023,0,0,0,17.476,1.386L57,34h0a18.256,18.256,0,0,1,4,11.4Z" style="fill:#666"/><path d="M24.9,55H61V45.4a18.232,18.232,0,0,0-1.9-8.072C49.216,47.658,34.939,52.647,24.9,55Z" style="fill:#666"/><path d="M3,55H29.675A38.967,38.967,0,0,0,42,53h0a38.967,38.967,0,0,1,12.325-2H61v4a6,6,0,0,1-6,6H9A6,6,0,0,1,3,55Z" style="fill:#d6d9db"/><rect x="10" y="58" width="2" height="3" style="fill:#b6b8ba"/><rect x="16" y="58" width="2" height="3" style="fill:#b6b8ba"/><rect x="22" y="58" width="2" height="3" style="fill:#b6b8ba"/><rect x="28" y="58" width="2" height="3" style="fill:#b6b8ba"/><rect x="34" y="58" width="2" height="3" style="fill:#b6b8ba"/><rect x="40" y="58" width="2" height="3" style="fill:#b6b8ba"/><rect x="46" y="58" width="2" height="3" style="fill:#b6b8ba"/><rect x="52" y="58" width="2" height="3" style="fill:#b6b8ba"/><path d="M46.629,44.071l.742,1.858-10,4a1,1,0,0,1-1.078-.222l-2.55-2.55-10.4,3.783-.684-1.88,11-4a1,1,0,0,1,1.049.233l2.534,2.534Z" style="fill:#d6d9db"/><rect x="32" y="34.298" width="2" height="6.403" transform="matrix(0.781, -0.625, 0.625, 0.781, -16.195, 28.832)" style="fill:#d6d9db"/><rect x="27.5" y="36.486" width="2" height="6.403" transform="matrix(0.781, -0.625, 0.625, 0.781, -18.547, 26.501)" style="fill:#d6d9db"/><rect x="22.812" y="38.736" width="2" height="6.403" transform="matrix(0.781, -0.625, 0.625, 0.781, -20.98, 24.065)" style="fill:#d6d9db"/><rect x="17.809" y="40.737" width="2" height="6.403" transform="matrix(0.781, -0.625, 0.625, 0.781, -23.326, 21.379)" style="fill:#d6d9db"/></g></svg>
